<svg xmlns="http://www.w3.org/2000/svg" viewBox="0 0 776.33276 775.33246"><path d="M546.67439,243.81439c6.29967-1.05571,12.22117-2.5216,18.21481-2.93031,7.18821-.49017,9.69519,3.34482,7.08563,10.15042a38.96181,38.96181,0,0,1-3.93329,6.90821q-15.384,23.84687-30.8616,47.63324c-3.88241,5.93821-8.029,11.70377-12.48432,18.17106,5.17212-1.7169,9.64642-3.32046,14.191-4.69068,22.54827-6.79849,45.69266-8.06759,69.02727-7.05319,8.50454.36969,11.20383,2.72313,13.60446,10.5012,3.75968-.8438,7.53277-1.81876,11.35533-2.52723a171.80609,171.80609,0,0,1,63.60936.26331,31.91312,31.91312,0,0,1,9.52815,3.65522c4.2158,2.3751,4.481,6.59642.79718,9.71321-2.11774,1.7918-4.64171,3.09509-6.91807,4.70955-5.1549,3.65579-10.61576,6.97448-15.33916,11.12752-17.88938,15.7294-38.11735,27.85254-59.03066,38.93411-37.033,19.62317-115.94168,47.75168-116.53621,48.31913,24.25941-2.87327,47.9571-5.76688,71.67694-8.46609,26.4783-3.01313,52.95841-6.035,79.47748-8.65007,7.93071-.78206,15.99984-.39682,23.99533-.17654,3.44342.09486,7.80611.08909,8.91956,4.3209,1.08826,4.13588-2.45546,6.6902-5.47078,8.26819C670.8406,440.757,654.286,450.014,636.9862,457.53522c-18.02017,7.83436-36.81378,13.88972-55.26875,20.7243-.69865.25878-1.39228.531-2.83143,1.08095,3.25474,1.302,5.89516,2.31593,8.50263,3.40843a109.20481,109.20481,0,0,1,36.85818,25.13791c3.877,4.02251,8.01071,7.79666,11.931,11.779a29.73031,29.73031,0,0,1,4.06291,5.01727c2.97557,4.76519,1.20308,8.49643-4.44246,8.43206-5.66617-.06464-11.58423-.274-16.931-1.91835-15.57118-4.789-31.25475-4.17019-47.17384-3.003a262.23465,262.23465,0,0,1-60.76605-2.53784c-22.77494-3.63876-45.21639-8.25278-66.46928-17.49679-4.75579-2.06855-9.36529-4.47351-14.44809-6.91891.66807,4.255,1.44869,8.27233,1.91,12.326,2.3042,20.24985.27191,39.747-9.69109,58.01026-8.62788,15.81581-16.86516,31.84445-25.44687,47.686a23.94566,23.94566,0,0,1-5.379,6.34029c-2.98228,2.60272-6.34467,2.26492-9.2542-.44532a8.49484,8.49484,0,0,1-1.507-1.71138c-10.47637-17.18733-23.00884-33.2836-27.97249-53.37948-4.50522-18.23989-9.15255-36.45437-10.23215-55.31091-.45945-8.02445,1.534-15.61944,5.04137-22.8265.3286-.6752.59973-1.379.87489-2.07842.03049-.07745-18.575,7.34925-27.83865,11.07053-32.12955,12.9066-64.85445,23.85934-99.27874,28.79851-8.00862,1.149-16.17565,1.15021-24.249,1.90276-11.48627,1.07072-22.94487,2.43973-34.4325,3.49355a82.10554,82.10554,0,0,1-14.79636.49973c-7.09245-.64327-9.14906-5.20335-5.338-11.23734,5.008-7.92913,11.7753-14.25951,19.07553-20.05684a189.9157,189.9157,0,0,1,35.21956-22.577c.89544-.43378,1.742-.96828,3.32417-1.8559-5.08386-1.81265-9.54988-3.40078-14.013-4.99706-26.4292-9.45243-52.94249-18.71026-77.84336-31.8782a90.139,90.139,0,0,1-11.26859-7.0544c-2.66206-1.95959-5.12241-4.57143-4.20291-8.347.90616-3.72078,4.20106-5.01136,7.46255-5.69773,9.87948-2.07893,19.92056-2.95184,29.92607-1.51715,33.17642,4.75723,66.31564,9.77375,99.47078,14.67969.98417.14559,1.98663.16737,3.96738.32585-7.40078-4.09316-13.98053-7.67133-20.50323-11.35058-24.66428-13.91249-49.75641-27.13439-73.83766-41.99353-24.258-14.96824-46.08484-33.36114-66.46324-53.32566a22.57241,22.57241,0,0,1-5.48667-10.09113c-1.22825-4.69726,1.4074-8.37966,6.11436-9.98438a24.83942,24.83942,0,0,1,7.07129-1.3376c28.00592-.94277,55.61916.9538,81.94,11.78373.69428.28568,1.445.4342,2.62723.781,1.88762-4.968,6.12663-5.27752,10.63484-5.15078,19.28152.542,37.8573,3.906,54.90053,13.5232a8.33372,8.33372,0,0,0,1.42386.42449,6.52373,6.52373,0,0,0-.486-1.51c-11.576-16.94609-20.83275-35.16686-29.59176-53.66725-3.15047-6.65437-6.47043-13.22831-9.66821-19.86059a11.51778,11.51778,0,0,1-1.41634-3.9226c-.1715-2.41511-.82338-5.72723.4291-7.04332,1.18769-1.248,4.85073-1.173,6.9196-.37279,9.56206,3.69871,18.94942,7.84938,28.39432,11.85006,1.015.42994,1.99709.93779,3.72224,1.75375-1.8776-6.90951-3.99593-13.0166-5.14119-19.301-1.88486-10.34258-3.32-20.77795-4.59587-31.21685-.83055-6.795-1.22717-13.65878-1.48027-20.50424-.252-6.81645,2.81214-9.59757,9.45054-7.923a53.57125,53.57125,0,0,1,13.59483,5.75431c22.29766,12.97869,40.22458,30.83284,55.9482,51.0514,3.03978,3.90878,5.8873,7.967,8.84081,11.94337.12678.17065.42873.21119.70517.33809a58.45987,58.45987,0,0,1,4.3636-5.61807c3.90147-3.97247,7.56183-4.831,12.40759-2.11835,4.5712,2.55893,8.68787,5.92986,13.22984,9.10094.28477-.81441.71822-1.94847,1.08016-3.105,6.6109-21.12264,13.49283-42.24169,25.18318-61.14392,7.04514-11.39135,15.8326-21.72963,24.13628-32.30625,3.417-4.35228,8.06343-3.76477,10.23688,1.36354,2.91237,6.87181,4.977,14.1,7.48009,21.14873,5.56409,15.66867,11.20457,31.3103,16.73618,46.99039.91513,2.594,1.43645,5.32691,2.30639,8.6278,2.40719-2.99189,4.2103-5.74729,6.51645-7.98414a110.11312,110.11312,0,0,1,12.26725-10.72806c4.35668-3.11926,8.90019-1.68785,11.56374,3.01328,3.74163,6.6039,4.39592,13.99306,5.0263,21.33309.48535,5.65151.65309,11.33029.98806,17.47317,4.8748-5.66247,9.08259-11.40341,14.137-16.26389,16.19225-15.57088,32.238-31.45743,52.97936-41.13827,8.26418-3.85723,16.778-7.20986,25.2988-10.47753,6.93754-2.66048,10.0054-.24558,10.40642,7.0346.399,7.244-3.1449,13.23765-5.491,19.62426-3.67753,10.01106-7.44643,19.98856-11.1397,29.99389A20.17639,20.17639,0,0,0,546.67439,243.81439Z" fill="none" stroke="#fff" stroke-miterlimit="10" stroke-width="3.94675"/><path d="M200.512,480.16131s45.13716-22.6213,158.148-6.66176c0,0-3.47857,2.13539-46.18114,11.62485,0,0-18.97891-.86268-50.898,23.29231,0,0-14.66553,8.19544-56.93676,12.07749,0,0-42.901,4.27662-61.13369,14.00013" fill="none" stroke="#fff" stroke-miterlimit="10" stroke-width="1.97338"/><path d="M220.213,473.85525s-107.01268-25.683-127.50132-46.2431" fill="none" stroke="#fff" stroke-miterlimit="10" stroke-width="1.97338"/><path d="M233.53846,435.40281s99.886,23.52331,124.50556,35.96a274.61793,274.61793,0,0,1-28.00923-30.51517s-74.06735-20.06545-162.28912-124.62814" fill="none" stroke="#fff" stroke-miterlimit="10" stroke-width="1.97338"/><path d="M68.37758,312.07222s10.13107,24.38461,201.25033,115.53993c0,0,30.38509,27.43546,86.10247,42.27116" fill="none" stroke="#fff" stroke-miterlimit="10" stroke-width="1.97338"/><path d="M165.00056,319.88461s13.76321,31.547,104.62735,107.72754" fill="none" stroke="#fff" stroke-miterlimit="10" stroke-width="1.97338"/><path d="M191.22661,242.67777s9.51207,24.81736,60.32746,107.55956c0,0,14.52049,17.25911,52.59205,39.59443,0,0,6.09145,18.52816,25.88867,51.0159" fill="none" stroke="#fff" stroke-miterlimit="10" stroke-width="1.97338"/><path d="M231.95979,328.68152s2.50991,5.98216,19.59428,21.55581" fill="none" stroke="#fff" stroke-miterlimit="10" stroke-width="1.97338"/><path d="M349.30663,488.8565s3.82491-5.77167,11.693-15.215c0,0,18.8,6.57119,27.16672-2.95892,0,0,8.62055,8.00724,21.81869,0,0,0,10.86167,9.22312,20.02494,30.55757" fill="none" stroke="#fff" stroke-miterlimit="10" stroke-width="1.97338"/><path d="M634.34319,533.09286s-16.48738-5.18822-33.49267-9.503c0,0-24.112-1.52286-56.09211-10.66,0,0-18.27435-3.80716-31.47249,0,0,0-23.60437,4.31478-50.76209-7.61431,0,0-28.29108-10.99929-41.04945-20.34756" fill="none" stroke="#fff" stroke-miterlimit="10" stroke-width="1.97338"/><path d="M691.70983,421.31678s4.57341,3.287-21.31526,12.42419c0,0-101.96164,31.68138-162.14979,34.36885" fill="none" stroke="#fff" stroke-miterlimit="10" stroke-width="1.97338"/><path d="M411.49205,470.44272c14.19749-11.52222,14.22927-13.09738,14.22927-13.09738,36.04108-7.36051,84.1641-20.66,84.1641-20.66" fill="none" stroke="#fff" stroke-miterlimit="10" stroke-width="1.97338"/><path d="M441.7907,448.58746c54.64857-39.72275,100.1758-68.90812,100.1758-68.90812,15.22862-10.66,61.67593-37.91663,61.67593-37.91663,19.5434-12.53559,15.55276-23.336,15.55276-23.336s-7.07015-1.20975-76.72107,26.22682c0,0-30.71107,11.41425-68.78263,49.36252l-47.97017,63.32931c70.5593-39.84824,138.58049-59.13783,138.58049-59.13783,35.53346-10.66,77.666-32.74155,77.666-32.74155,14.721-6.34526,40.60966-26.00653,40.60966-26.00653,10.66-10.77791,25.76023-13.59811,25.76023-13.59811" fill="none" stroke="#fff" stroke-miterlimit="10" stroke-width="1.97338"/><path d="M523.20012,324.10015s-32.09386,47.48559-49.50863,69.91588" fill="none" stroke="#fff" stroke-miterlimit="10" stroke-width="1.97338"/><path d="M569.32327,241.2849s-3.49859,11.743-17.712,22.40308c0,0-8.6743,10.63419-11.09083,16.81864a9.66916,9.66916,0,0,1-1.09764,2.04555c-3.11877,4.44377-15.01009,21.20359-21.90872,28.34541a14.66249,14.66249,0,0,0-2.09146,2.71657c-6.97684,11.79021-53.08893,88.92557-102.64565,152.68066l-2.79192,4.38779c83.24982-13.56664,168.901,8.65787,168.901,8.65787" fill="none" stroke="#fff" stroke-miterlimit="10" stroke-width="1.97338"/><path d="M561.18931,184.93194s-11.16648,34.76976-35.02466,74.618c0,0,11.70009-10.559,19.93653-15.305" fill="none" stroke="#fff" stroke-linejoin="round" stroke-width="1.97338"/><path d="M526.73787,259.11939c-51.0159,32.74155-66.11081,70.5593-66.11081,70.5593s-5.59381,14.069-10.03232,39.84824" fill="none" stroke="#fff" stroke-miterlimit="10" stroke-width="1.97338"/><path d="M301.60643,349.05513c-4.31477-15.48243-39.339-22.42217-39.339-22.42217-16.49768-4.31477-6.59907,6.59908-6.59907,6.59908,21.06627,18.782,48.47779,56.59972,48.47779,56.59972-3.82018-10.20616-5.53972-18.18358-5.90962-24.41856-1.27671-21.51964,13.52394-22.28256,13.52394-22.28256,52.38686,4.44446,67.51357,44.53559,67.51357,44.53559,12.94433-49.88189,57.40831-49.71134,57.40831-49.71134s19.091-2.10067,13.91242,31.572c0,0-12.50191,48.06324-27.82484,83.67707" fill="none" stroke="#fff" stroke-miterlimit="10" stroke-width="1.97338"/><path d="M298.2365,365.4132s-15.761-8.30491-36.01747-25.95377" fill="none" stroke="#fff" stroke-miterlimit="10" stroke-width="1.97338"/><path d="M230.26277,255.90879s29.21825,23.07964,63.22884,66.31261" fill="none" stroke="#fff" stroke-linecap="round" stroke-miterlimit="10" stroke-width="1.97338"/><path d="M308.3086,246.05084s-12.06859,18.1151-4.45428,80.80049" fill="none" stroke="#fff" stroke-linecap="round" stroke-miterlimit="10" stroke-width="1.97338"/><path d="M314.641,238.18556s10.82516.88281,28.33808,36.41627a202.212,202.212,0,0,0,18.356,33.90441" fill="none" stroke="#fff" stroke-miterlimit="10" stroke-width="1.97338"/><path d="M337.11937,247.41536s13.14371,12.63023,38.01714,58.56992" fill="none" stroke="#fff" stroke-linecap="round" stroke-miterlimit="10" stroke-width="1.97338"/><path d="M425.37411,229.41921s-31.68962,43.37237-38.5425,104.79449" fill="none" stroke="#fff" stroke-linecap="round" stroke-miterlimit="10" stroke-width="1.97338"/><path d="M460.70988,252.098s-1.75988,33.28024-14.9323,89.20267" fill="none" stroke="#fff" stroke-miterlimit="10" stroke-width="1.97338"/><path d="M379.274,387.66623s9.66281,31.88578,8.89237,83.01637" fill="none" stroke="#fff" stroke-miterlimit="10" stroke-width="1.97338"/><path d="M226.884,176.63582s-8.69706,18.32431,11.42889,86.05994" fill="none" stroke="#fff" stroke-miterlimit="10" stroke-width="1.97338"/><path d="M306.93307,344.615s-.14366-5.19528-18.226-18.58992a1.51113,1.51113,0,0,1-.62754-1.22268c.03178-1.778,1.495-5.26319,14.76031,2.05221,0,0,11.76163,9.61359,14.11731,16.84769" fill="none" stroke="#fff" stroke-miterlimit="10" stroke-width="0.98669"/><path d="M333.43622,347.5751s3.38082-32.714-22.96524-42.015a2.377,2.377,0,0,1-1.24318-.96933c-.939-1.52033-2.1412-4.88929,5.901-4.599a11.40121,11.40121,0,0,1,5.17707,1.50011c6.73629,3.79985,25.943,15.09428,25.28371,51.391" fill="none" stroke="#fff" stroke-miterlimit="10" stroke-width="0.98669"/><path d="M351.46555,355.88589s-1.27613-13.6702,2.42395-13.249c0,0,6.34081-1.649,3.35541,18.13315" fill="none" stroke="#fff" stroke-miterlimit="10" stroke-width="0.98669"/><path d="M361.33516,363.40882s-1.71527-19.90381-1.923-38.65088c0,0-1.49849-15.817,3.45476-16.62925a1.34375,1.34375,0,0,1,1.30447.56913c1.25976,1.78468,3.86187,8.93841,3.29651,37.52059,0,0,.15853,4.13061,4.27445,9.16611a8.58419,8.58419,0,0,1,1.92726,4.52117c.33849,3.1804.40122,5.17615-.3356,17.70014" fill="none" stroke="#fff" stroke-miterlimit="10" stroke-width="0.98669"/><path d="M367.65484,347.56317a88.76758,88.76758,0,0,0,4.99313-26.382s.37-25.28388,19.61043-31.32735c0,0,6.81559-1.33878-2.28255,8.19464a1.77,1.77,0,0,1-.38319.29739c-1.37386.80508-9.23026,6.73987-3.56378,34.79567a7.84131,7.84131,0,0,0,1.10133,2.71609c1.62588,2.50867,5.34041,9.87265,5.4497,24.91236" fill="none" stroke="#fff" stroke-miterlimit="10" stroke-width="0.98669"/><path d="M407.67544,347.5751s-4.3168-35.97683,19.73372-38.70887c0,0,6.1668-.39177-6.90682,11.01838,0,0-7.419,4.47814-4.13939,22.63832" fill="none" stroke="#fff" stroke-miterlimit="10" stroke-width="0.98669"/><path d="M425.97136,339.45943s6.2479-22.965,22.77493-22.225c0,0,6.78348.74-3.70008,6.90682A50.65163,50.65163,0,0,0,434.938,338.03168" fill="none" stroke="#fff" stroke-miterlimit="10" stroke-width="0.98669"/><path d="M288.11208,324.41541s15.74554,6.98441,20.74563,19.36825" fill="none" stroke="#fff" stroke-miterlimit="10" stroke-width="0.98669"/><path d="M308.85771,302.47524s27.51382-2.02411,28.26166,46.29109" fill="none" stroke="#fff" stroke-miterlimit="10" stroke-width="0.98669"/><path d="M394.61615,290.54566s-13.61532,7.81838-13.43388,24.59207c0,0-1.27724,9.51026,4.316,23.9599a2.55952,2.55952,0,0,0,.33288.60709c.98027,1.31248,5.40962,7.97314,6.05458,21.92653" fill="none" stroke="#fff" stroke-miterlimit="10" stroke-width="0.98669"/><path d="M428.80239,310.43309s-10.27342,3.80018-12.90459,12.59815c0,0-2.93088,7.01234-2.94547,21.016" fill="none" stroke="#fff" stroke-miterlimit="10" stroke-width="0.98669"/><path d="M450.59474,318.42669s-15.997,8.49968-17.97756,19.82658" fill="none" stroke="#fff" stroke-miterlimit="10" stroke-width="0.98669"/></svg>